<svg width="243" height="54" viewBox="0 0 243 54" fill="none" xmlns="http://www.w3.org/2000/svg">
<path d="M204.058 12.1481H217.27V17.596C219.274 13.3796 222.677 11.2715 227.477 11.2715C230.274 11.2715 232.842 11.9811 235.179 13.4005C237.559 14.7781 239.417 16.6984 240.753 19.1615C242.13 21.6245 242.819 24.3797 242.819 27.4272C242.819 30.4747 242.109 33.2299 240.69 35.6929C239.312 38.1559 237.434 40.0971 235.054 41.5165C232.716 42.8941 230.212 43.5829 227.54 43.5829C222.781 43.5829 219.358 41.4748 217.27 37.2584V51.2225L204.058 53.7272V12.1481ZM223.532 33.6891C225.244 33.6891 226.705 33.0629 227.916 31.8105C229.126 30.5581 229.732 29.097 229.732 27.4272C229.732 25.6739 229.105 24.1919 227.853 22.9812C226.642 21.7706 225.202 21.1653 223.532 21.1653C221.821 21.1653 220.36 21.7706 219.149 22.9812C217.938 24.1501 217.333 25.5486 217.333 27.1767V27.4272C217.333 29.1805 217.938 30.6625 219.149 31.8732C220.401 33.0838 221.862 33.6891 223.532 33.6891Z" fill="#FEFFBE"/>
<path d="M177.379 44.0839C173.247 44.0839 169.552 43.2907 166.296 41.7043C163.081 40.118 160.577 37.9054 158.782 35.0667C156.987 32.1862 156.089 28.9092 156.089 25.2355V0H170.241V25.2355C170.241 27.7403 170.846 29.6189 172.057 30.8712C173.268 32.1236 175.042 32.7498 177.379 32.7498C179.717 32.7498 181.491 32.1236 182.702 30.8712C183.913 29.5771 184.518 27.6985 184.518 25.2355V0H198.67V25.2355C198.67 28.9092 197.772 32.1862 195.977 35.0667C194.182 37.9054 191.657 40.118 188.4 41.7043C185.186 43.2907 181.512 44.0839 177.379 44.0839Z" fill="#FEFFBE"/>
<path d="M114.392 12.1481H126.979V18.5353C129.4 13.6927 133.241 11.2715 138.501 11.2715C142.508 11.2715 145.639 12.7117 147.894 15.5922C150.19 18.4309 151.338 22.3759 151.338 27.4272V43.082H138.188V26.1122C138.188 24.3171 137.791 22.9395 136.998 21.9793C136.247 21.0192 135.182 20.5391 133.804 20.5391C132.802 20.5391 131.821 20.8731 130.861 21.541C129.901 22.1672 129.108 23.0856 128.482 24.2962C127.897 25.5069 127.605 26.8845 127.605 28.4291V43.082H114.392V12.1481Z" fill="#FEFFBE"/>
<path d="M96.755 43.5829C93.2901 43.5829 90.2009 42.8941 87.4874 41.5165C84.8156 40.0971 82.7283 38.1768 81.2255 35.7555C79.7226 33.2925 78.9712 30.5164 78.9712 27.4272C78.9712 24.2545 79.7435 21.4366 81.2881 18.9736C82.8327 16.5106 84.92 14.6111 87.55 13.2753C90.18 11.9394 93.1022 11.2715 96.3167 11.2715C99.4059 11.2715 102.036 11.9603 104.207 13.3379C106.419 14.6738 108.068 16.5106 109.154 18.8484C110.239 21.1444 110.782 23.7327 110.782 26.6131C110.782 27.3646 110.74 27.9073 110.656 28.2412L91.8707 30.6834C92.3717 32.1445 93.1857 33.209 94.3129 33.877C95.44 34.5032 96.922 34.8163 98.7588 34.8163C101.598 34.8163 104.666 34.0857 107.964 32.6246L109.529 41.0155C105.647 42.7271 101.389 43.5829 96.755 43.5829ZM101.076 22.7934C100.408 20.1634 98.8215 18.8484 96.3167 18.8484C94.8138 18.8484 93.6241 19.4119 92.7474 20.5391C91.8707 21.6662 91.4115 23.1273 91.3698 24.9224L101.076 22.7934Z" fill="#FEFFBE"/>
<path d="M62.899 43.5829C59.434 43.5829 56.3448 42.8941 53.6313 41.5165C50.9596 40.0971 48.8723 38.1768 47.3694 35.7555C45.8665 33.2925 45.1151 30.5164 45.1151 27.4272C45.1151 24.2545 45.8874 21.4366 47.432 18.9736C48.9766 16.5106 51.0639 14.6111 53.6939 13.2753C56.3239 11.9394 59.2462 11.2715 62.4606 11.2715C65.5498 11.2715 68.1798 11.9603 70.3506 13.3379C72.5632 14.6738 74.2121 16.5106 75.2975 18.8484C76.3829 21.1444 76.9256 23.7327 76.9256 26.6131C76.9256 27.3646 76.8839 27.9073 76.8004 28.2412L58.0147 30.6834C58.5156 32.1445 59.3297 33.209 60.4568 33.877C61.5839 34.5032 63.0659 34.8163 64.9028 34.8163C67.7415 34.8163 70.8098 34.0857 74.1078 32.6246L75.6732 41.0155C71.7909 42.7271 67.5328 43.5829 62.899 43.5829ZM67.2197 22.7934C66.5517 20.1634 64.9654 18.8484 62.4606 18.8484C60.9578 18.8484 59.768 19.4119 58.8913 20.5391C58.0147 21.6662 57.5554 23.1273 57.5137 24.9224L67.2197 22.7934Z" fill="#FEFFBE"/>
<path d="M0.73877 0H19.4619C23.9705 0 27.9572 0.89754 31.4221 2.69262C34.9288 4.4877 37.6423 6.99247 39.5626 10.2069C41.5247 13.4214 42.5057 17.095 42.5057 21.2279C42.5057 25.5695 41.5456 29.3892 39.6253 32.6872C37.7467 35.9851 35.0541 38.5525 31.5474 40.3893C28.0825 42.1844 24.054 43.082 19.4619 43.082H0.73877V0Z" fill="#FEFFBE"/>
<path d="M18.8854 31.4079C18.9861 31.3607 24.0821 32.0961 28.3931 26.7611C32.4195 21.7782 31.4168 15.1324 26.442 11.1126C24.001 9.14006 21.0018 8.32791 18.1025 8.5952C17.7416 8.62984 16.4119 8.85689 16.339 9.21079C16.4296 9.23732 17.4074 9.25883 17.8688 9.39385C20.6944 9.79656 21.8975 10.8976 22.274 11.2922C26.7533 14.8172 25.9381 21.2013 22.7743 25.1167C20.6325 27.7672 15.585 28.7729 12.4646 27.8597C12.102 27.7536 11.0306 27.2432 10.574 26.6175C10.4131 26.9403 11.2368 28.4972 11.5844 28.8814C13.7035 31.2237 18.8854 31.4079 18.8854 31.4079Z" fill="#472836"/>
</svg>
